<?xml version="1.0" standalone="no"?>
<!DOCTYPE svg PUBLIC "-//W3C//DTD SVG 20010904//EN"
 "http://www.w3.org/TR/2001/REC-SVG-20010904/DTD/svg10.dtd">
<svg version="1.0" xmlns="http://www.w3.org/2000/svg"
 width="96.000000pt" height="96.000000pt" viewBox="0 0 96.000000 96.000000"
 preserveAspectRatio="xMidYMid meet">
<metadata>
Created by potrace 1.14, written by Peter Selinger 2001-2017
</metadata>
<g transform="translate(0.000000,96.000000) scale(0.100000,-0.100000)"
fill="#000000" stroke="none">
<path d="M376 845 c-24 -25 -20 -32 19 -31 42 2 48 13 19 33 -19 12 -24 12
-38 -2z"/>
<path d="M513 793 c-13 -8 -23 -22 -23 -30 0 -13 3 -13 15 -3 12 10 18 10 30
0 12 -10 13 -16 3 -29 -12 -14 -11 -14 5 -2 20 16 24 81 5 80 -7 0 -23 -7 -35
-16z"/>
<path d="M323 723 c-19 -7 -113 -123 -113 -139 0 -21 20 -17 48 9 19 16 24 18
19 6 -33 -95 -32 -135 3 -89 l20 25 0 -55 c0 -30 3 -71 6 -90 5 -33 1 -41 -45
-90 -48 -50 -52 -58 -47 -94 6 -49 26 -73 26 -30 0 22 10 40 36 65 l36 34 -4
-33 c-3 -18 -1 -35 4 -38 4 -3 8 -15 8 -27 0 -12 5 -29 11 -37 8 -11 9 -7 6
20 -2 19 -1 42 3 50 4 8 18 78 30 155 12 77 24 150 27 163 4 19 1 22 -23 22
-16 0 -34 4 -41 8 -14 9 -9 90 7 106 12 12 14 66 3 65 -5 0 -14 -3 -20 -6z
m14 -45 c-3 -8 -6 -5 -6 6 -1 11 2 17 5 13 3 -3 4 -12 1 -19z"/>
<path d="M400 711 c0 -6 4 -12 9 -16 12 -7 11 -65 -1 -65 -9 0 -1 -109 8 -119
3 -3 10 1 16 7 9 9 9 12 0 12 -17 0 -15 17 4 24 8 3 13 2 10 -2 -2 -4 2 -16 9
-26 13 -17 17 -15 70 34 30 29 53 55 50 58 -3 3 -14 -3 -25 -13 -12 -11 -30
-16 -49 -13 -18 3 -28 0 -24 -5 4 -6 -3 -8 -18 -4 -13 4 -27 7 -30 7 -4 0 -10
7 -13 16 -6 15 -4 15 10 3 14 -11 18 -11 21 -1 3 6 10 10 16 6 7 -3 4 1 -5 9
-10 8 -18 24 -18 36 0 12 -5 31 -10 42 -11 20 -30 26 -30 10z"/>
<path d="M581 454 c0 -11 3 -14 6 -6 3 7 2 16 -1 19 -3 4 -6 -2 -5 -13z"/>
</g>
</svg>
